<svg width="36" height="36" viewBox="0 0 36 36" fill="none" xmlns="http://www.w3.org/2000/svg">
<mask id="mask0_657_237" style="mask-type:alpha" maskUnits="userSpaceOnUse" x="0" y="0" width="36" height="36">
<circle cx="18" cy="18" r="18" fill="#65BB99"/>
</mask>
<g mask="url(#mask0_657_237)">
<rect x="-9.75" width="54.75" height="39" rx="2" fill="white"/>
<mask id="mask1_657_237" style="mask-type:alpha" maskUnits="userSpaceOnUse" x="-10" y="0" width="55" height="39">
<rect x="-9.75" width="54.75" height="39" rx="2" fill="white"/>
</mask>
<g mask="url(#mask1_657_237)">
<path fill-rule="evenodd" clip-rule="evenodd" d="M-9.75 13H45V0H-9.75V13Z" fill="#24AAD5"/>
<path fill-rule="evenodd" clip-rule="evenodd" d="M-9.75 39H45V26H-9.75V39Z" fill="#21BF75"/>
<path fill-rule="evenodd" clip-rule="evenodd" d="M-9.75 26H45V13H-9.75V26Z" fill="#ED1845"/>
<g filter="url(#filter0_d_657_237)">
<path fill-rule="evenodd" clip-rule="evenodd" d="M17.6249 23.4C18.4291 23.4 19.1766 23.1579 19.7982 22.7429C19.7262 22.7476 19.6535 22.75 19.5803 22.75C17.7804 22.75 16.3214 21.2949 16.3214 19.5C16.3214 17.7051 17.7804 16.25 19.5803 16.25C19.6535 16.25 19.7262 16.2524 19.7982 16.2571C19.1766 15.8421 18.4291 15.6 17.6249 15.6C15.4651 15.6 13.7142 17.3461 13.7142 19.5C13.7142 21.6539 15.4651 23.4 17.6249 23.4ZM21.5357 19.5C21.5357 20.218 20.952 20.8 20.2321 20.8C19.5121 20.8 18.9285 20.218 18.9285 19.5C18.9285 18.782 19.5121 18.2 20.2321 18.2C20.952 18.2 21.5357 18.782 21.5357 19.5Z" fill="white"/>
</g>
</g>
</g>
<defs>
<filter id="filter0_d_657_237" x="13.7142" y="15.6" width="7.82141" height="8.8" filterUnits="userSpaceOnUse" color-interpolation-filters="sRGB">
<feFlood flood-opacity="0" result="BackgroundImageFix"/>
<feColorMatrix in="SourceAlpha" type="matrix" values="0 0 0 0 0 0 0 0 0 0 0 0 0 0 0 0 0 0 127 0" result="hardAlpha"/>
<feOffset dy="1"/>
<feColorMatrix type="matrix" values="0 0 0 0 0 0 0 0 0 0 0 0 0 0 0 0 0 0 0.06 0"/>
<feBlend mode="normal" in2="BackgroundImageFix" result="effect1_dropShadow_657_237"/>
<feBlend mode="normal" in="SourceGraphic" in2="effect1_dropShadow_657_237" result="shape"/>
</filter>
</defs>
</svg>
