<svg width="44" height="24" viewBox="0 0 44 24" fill="none" xmlns="http://www.w3.org/2000/svg">
<path d="M12.0646 1.49478C12.4005 1.83076 12.5892 2.2864 12.5892 2.76148C12.5892 3.23657 12.4005 3.6922 12.0646 4.02819L5.5591 10.5391L42.1431 10.5391C42.6183 10.5391 43.074 10.7279 43.41 11.0639C43.746 11.3999 43.9348 11.8556 43.9348 12.3308C43.9348 12.806 43.746 13.2617 43.41 13.5977C43.074 13.9337 42.6183 14.1224 42.1431 14.1224L5.57881 14.1224L12.0646 20.6065C12.2425 20.7699 12.3854 20.9676 12.4849 21.1877C12.5844 21.4078 12.6383 21.6458 12.6435 21.8872C12.6487 22.1287 12.605 22.3688 12.515 22.5929C12.425 22.8171 12.2907 23.0207 12.12 23.1916C11.9494 23.3625 11.7459 23.4972 11.5219 23.5874C11.2978 23.6777 11.0579 23.7218 10.8164 23.7169C10.5749 23.7121 10.3369 23.6585 10.1167 23.5593C9.89642 23.4602 9.69851 23.3175 9.53481 23.1399L2.51327 16.1184C2.01406 15.6192 1.61806 15.0267 1.34788 14.3745C1.0777 13.7223 0.938648 13.0233 0.938648 12.3173C0.938648 11.6114 1.0777 10.9124 1.34788 10.2602C1.61806 9.60802 2.01406 9.01544 2.51327 8.51632L9.53481 1.49478C9.87065 1.15998 10.3255 0.971988 10.7997 0.971988C11.2739 0.971988 11.7288 1.15998 12.0646 1.49478Z" fill="#0E1B47"/>
</svg>
