<svg width="36" height="36" viewBox="0 0 36 36" fill="none" xmlns="http://www.w3.org/2000/svg">
<mask id="mask0_657_243" style="mask-type:alpha" maskUnits="userSpaceOnUse" x="0" y="0" width="36" height="36">
<circle cx="18" cy="18" r="18" fill="#65BB99"/>
</mask>
<g mask="url(#mask0_657_243)">
<rect width="51" height="36" rx="2" fill="white"/>
<mask id="mask1_657_243" style="mask-type:alpha" maskUnits="userSpaceOnUse" x="0" y="0" width="51" height="36">
<rect width="51" height="36" rx="2" fill="white"/>
</mask>
<g mask="url(#mask1_657_243)">
<path fill-rule="evenodd" clip-rule="evenodd" d="M51 0H0V2.4H51V0ZM51 4.8H0V7.2H51V4.8ZM0 9.6H51V12H0V9.6ZM51 14.4H0V16.8H51V14.4ZM0 19.2H51V21.6H0V19.2ZM51 24H0V26.4H51V24ZM0 28.8H51V31.2H0V28.8ZM51 33.6H0V36H51V33.6Z" fill="#D02F44"/>
<rect width="21.8571" height="16.8" fill="#46467F"/>
<g filter="url(#filter0_d_657_243)">
<path fill-rule="evenodd" clip-rule="evenodd" d="M4.85716 3.6C4.85716 4.26274 4.31351 4.8 3.64287 4.8C2.97224 4.8 2.42859 4.26274 2.42859 3.6C2.42859 2.93726 2.97224 2.4 3.64287 2.4C4.31351 2.4 4.85716 2.93726 4.85716 3.6ZM9.7143 3.6C9.7143 4.26274 9.17065 4.8 8.50002 4.8C7.82939 4.8 7.28573 4.26274 7.28573 3.6C7.28573 2.93726 7.82939 2.4 8.50002 2.4C9.17065 2.4 9.7143 2.93726 9.7143 3.6ZM13.3572 4.8C14.0278 4.8 14.5714 4.26274 14.5714 3.6C14.5714 2.93726 14.0278 2.4 13.3572 2.4C12.6865 2.4 12.1429 2.93726 12.1429 3.6C12.1429 4.26274 12.6865 4.8 13.3572 4.8ZM19.4286 3.6C19.4286 4.26274 18.8849 4.8 18.2143 4.8C17.5437 4.8 17 4.26274 17 3.6C17 2.93726 17.5437 2.4 18.2143 2.4C18.8849 2.4 19.4286 2.93726 19.4286 3.6ZM6.07145 7.2C6.74208 7.2 7.28573 6.66274 7.28573 6C7.28573 5.33726 6.74208 4.8 6.07145 4.8C5.40081 4.8 4.85716 5.33726 4.85716 6C4.85716 6.66274 5.40081 7.2 6.07145 7.2ZM12.1429 6C12.1429 6.66274 11.5992 7.2 10.9286 7.2C10.258 7.2 9.7143 6.66274 9.7143 6C9.7143 5.33726 10.258 4.8 10.9286 4.8C11.5992 4.8 12.1429 5.33726 12.1429 6ZM15.7857 7.2C16.4564 7.2 17 6.66274 17 6C17 5.33726 16.4564 4.8 15.7857 4.8C15.1151 4.8 14.5714 5.33726 14.5714 6C14.5714 6.66274 15.1151 7.2 15.7857 7.2ZM19.4286 8.4C19.4286 9.06274 18.8849 9.6 18.2143 9.6C17.5437 9.6 17 9.06274 17 8.4C17 7.73726 17.5437 7.2 18.2143 7.2C18.8849 7.2 19.4286 7.73726 19.4286 8.4ZM13.3572 9.6C14.0278 9.6 14.5714 9.06274 14.5714 8.4C14.5714 7.73726 14.0278 7.2 13.3572 7.2C12.6865 7.2 12.1429 7.73726 12.1429 8.4C12.1429 9.06274 12.6865 9.6 13.3572 9.6ZM9.7143 8.4C9.7143 9.06274 9.17065 9.6 8.50002 9.6C7.82939 9.6 7.28573 9.06274 7.28573 8.4C7.28573 7.73726 7.82939 7.2 8.50002 7.2C9.17065 7.2 9.7143 7.73726 9.7143 8.4ZM3.64287 9.6C4.31351 9.6 4.85716 9.06274 4.85716 8.4C4.85716 7.73726 4.31351 7.2 3.64287 7.2C2.97224 7.2 2.42859 7.73726 2.42859 8.4C2.42859 9.06274 2.97224 9.6 3.64287 9.6ZM7.28573 10.8C7.28573 11.4627 6.74208 12 6.07145 12C5.40081 12 4.85716 11.4627 4.85716 10.8C4.85716 10.1373 5.40081 9.6 6.07145 9.6C6.74208 9.6 7.28573 10.1373 7.28573 10.8ZM10.9286 12C11.5992 12 12.1429 11.4627 12.1429 10.8C12.1429 10.1373 11.5992 9.6 10.9286 9.6C10.258 9.6 9.7143 10.1373 9.7143 10.8C9.7143 11.4627 10.258 12 10.9286 12ZM17 10.8C17 11.4627 16.4564 12 15.7857 12C15.1151 12 14.5714 11.4627 14.5714 10.8C14.5714 10.1373 15.1151 9.6 15.7857 9.6C16.4564 9.6 17 10.1373 17 10.8ZM18.2143 14.4C18.8849 14.4 19.4286 13.8627 19.4286 13.2C19.4286 12.5373 18.8849 12 18.2143 12C17.5437 12 17 12.5373 17 13.2C17 13.8627 17.5437 14.4 18.2143 14.4ZM14.5714 13.2C14.5714 13.8627 14.0278 14.4 13.3572 14.4C12.6865 14.4 12.1429 13.8627 12.1429 13.2C12.1429 12.5373 12.6865 12 13.3572 12C14.0278 12 14.5714 12.5373 14.5714 13.2ZM8.50002 14.4C9.17065 14.4 9.7143 13.8627 9.7143 13.2C9.7143 12.5373 9.17065 12 8.50002 12C7.82939 12 7.28573 12.5373 7.28573 13.2C7.28573 13.8627 7.82939 14.4 8.50002 14.4ZM4.85716 13.2C4.85716 13.8627 4.31351 14.4 3.64287 14.4C2.97224 14.4 2.42859 13.8627 2.42859 13.2C2.42859 12.5373 2.97224 12 3.64287 12C4.31351 12 4.85716 12.5373 4.85716 13.2Z" fill="url(#paint0_linear_657_243)"/>
</g>
</g>
</g>
<defs>
<filter id="filter0_d_657_243" x="2.42859" y="2.4" width="17" height="13" filterUnits="userSpaceOnUse" color-interpolation-filters="sRGB">
<feFlood flood-opacity="0" result="BackgroundImageFix"/>
<feColorMatrix in="SourceAlpha" type="matrix" values="0 0 0 0 0 0 0 0 0 0 0 0 0 0 0 0 0 0 127 0" result="hardAlpha"/>
<feOffset dy="1"/>
<feColorMatrix type="matrix" values="0 0 0 0 0 0 0 0 0 0 0 0 0 0 0 0 0 0 0.06 0"/>
<feBlend mode="normal" in2="BackgroundImageFix" result="effect1_dropShadow_657_243"/>
<feBlend mode="normal" in="SourceGraphic" in2="effect1_dropShadow_657_243" result="shape"/>
</filter>
<linearGradient id="paint0_linear_657_243" x1="2.42859" y1="2.4" x2="2.42859" y2="14.4" gradientUnits="userSpaceOnUse">
<stop stop-color="white"/>
<stop offset="1" stop-color="#F0F0F0"/>
</linearGradient>
</defs>
</svg>
