<svg width="263" height="103" viewBox="0 0 263 103" fill="none" xmlns="http://www.w3.org/2000/svg">
<path fill-rule="evenodd" clip-rule="evenodd" d="M123.216 32.1848L135.226 32.1412V25.4343H109.759V32.2283L123.216 32.1848ZM123.259 44.4228L135.27 44.3793L135.182 37.3239L121.944 37.3675L109.846 37.411L109.89 44.51L123.259 44.4228ZM135.314 56.3125L135.226 49.562L123.303 49.6055L109.846 49.6491L109.89 56.5302L135.314 56.3125ZM212.022 24.781H209.085L196.198 56.356H204.088L205.359 53.4381L212.153 53.3945L218.948 53.351L220.219 56.2689L228.109 56.1818L214.959 24.6939L212.022 24.781ZM211.978 36.4964L212.066 36.5835L212.153 36.4964L215.572 45.0761L212.11 45.1197H208.603L211.978 36.4964ZM92.4007 33.3171C94.0663 32.4897 103.841 32.8816 105.682 32.8816L105.638 25.3472L91.0418 25.4778C83.1957 24.8681 73.4647 36.9755 78.6808 47.515C80.6095 51.3911 83.8093 54.6575 88.5872 56.0947C91.787 57.0529 102.132 56.9658 105.945 56.6173L105.901 48.7345C102.789 48.4296 98.625 48.6909 95.3375 48.6909C91.1295 48.6909 89.683 48.299 87.4037 45.9472C85.6503 44.118 84.9052 40.7209 86.264 37.6723C87.3598 35.277 89.683 33.5785 92.4007 33.3171ZM169.635 56.5302L194.664 56.3996L194.62 49.0393L177.35 49.0829L177.262 24.8245H169.46L169.635 56.5302ZM148.157 41.8097C148.42 42.6808 148.244 43.6825 148.244 45.0761L148.332 56.3996L156.178 56.356L156.354 41.4613L162.183 32.1412C163.586 29.9637 164.945 27.8732 165.734 26.4795L166.611 25.0859H166.435C166.435 25.0423 166.435 24.9987 166.479 24.9552H158.721H157.8L152.277 33.9269L152.146 34.0575L150.173 30.9218C148.902 28.7878 147.368 26.4795 146.447 24.9988L137.593 25.1294L148.157 41.8097ZM239.812 40.1983L249.675 56.1818L257.258 56.1383L257.039 24.5632L248.754 24.6068V40.7645C247.045 38.1514 245.291 35.3205 243.626 32.4897C243.187 31.7493 242.793 31.096 242.442 30.4863L238.892 24.8245L238.804 24.6939H237.84H234.158H231.089V24.8245L231.133 41.3742H231.177L231.265 56.2689L239.593 56.2254L239.812 40.1983Z" fill="#0E1B47"/>
<path fill-rule="evenodd" clip-rule="evenodd" d="M40.6773 34.9285V25.6956L27.0013 25.7391C27.0013 25.7827 6.75033 25.3907 5.786 44.2486C5.34767 52.9154 11.4843 61.0161 19.7688 63.4985C22.3112 64.2389 28.5355 64.4567 33.8393 64.4131L41.0718 64.3696V64.1082L41.028 54.2655H39.713L33.2257 54.3091L28.0533 54.3962C21.303 54.4397 15.5608 50.8685 15.8677 44.9019C16.2183 37.8901 21.3468 35.6254 27.2643 34.9721L39.6692 34.9285C40.0198 34.9285 40.3705 34.9285 40.6773 34.9285Z" fill="#0E1B47"/>
<path fill-rule="evenodd" clip-rule="evenodd" d="M20.9523 69.2038L20.9962 78.4368L34.6722 78.3932C34.6722 78.3497 54.9232 78.7416 55.8875 59.8837C56.3258 51.2169 50.1892 43.1163 41.9047 40.6338C39.3623 39.8934 33.138 39.6757 27.8342 39.6757L20.6017 39.7192V39.9805L20.6455 49.7797H21.9605H28.4478H33.6202C40.3705 49.7361 46.1127 53.3074 45.8058 59.274C45.4552 66.2858 40.3267 68.5505 34.4092 69.2038L21.9605 69.2473H20.9085" fill="#65BB99"/>
<path d="M255.68 71.5556L252.261 66.7649H251.077L251.121 74.6042H252.699V69.8135L256.118 74.6042H257.302L257.258 66.7649H255.68V71.5556ZM234.245 72.6443C233.281 71.5991 233.281 69.9877 234.245 68.9424C235.253 67.9843 236.875 67.9843 237.883 68.9424C238.935 69.9006 238.935 71.5556 237.971 72.5572C237.489 73.0799 236.788 73.3412 236.086 73.3412C235.429 73.3847 234.727 73.1234 234.245 72.6443ZM238.979 73.6896C239.768 72.9057 240.207 71.8604 240.163 70.7716C240.207 68.5069 238.453 66.6342 236.174 66.5906C233.895 66.5471 232.01 68.2892 231.966 70.5539C231.966 70.641 231.966 70.7281 231.966 70.8152C231.966 73.0799 233.851 74.909 236.13 74.8655C237.182 74.8219 238.234 74.43 238.979 73.6896ZM219.473 74.7784H221.008L220.964 66.9391H219.386L219.473 74.7784ZM202.948 66.9826V68.4634H205.052L205.096 74.8219H206.674L206.63 68.4634H208.778V66.9826H202.948ZM189.316 75.0397C190.105 75.0832 190.894 74.8219 191.508 74.2993C192.078 73.7767 192.384 73.0799 192.341 72.2959V67.0262H190.806V72.2088C190.806 73.0363 190.368 73.5589 189.36 73.5589C188.352 73.5589 187.87 73.0363 187.87 72.2524V67.0697H186.292V72.3395C186.248 73.0799 186.598 73.8202 187.168 74.3429C187.738 74.7784 188.483 75.0397 189.316 75.0397ZM171.301 73.4718V71.5991H173.098C173.624 71.6427 174.018 72.0782 173.974 72.6008C173.931 73.0799 173.58 73.4283 173.098 73.4718H171.301ZM172.835 68.5069C173.317 68.5069 173.711 68.8989 173.711 69.378C173.711 69.857 173.317 70.249 172.835 70.249H171.257V68.5069H172.835ZM174.5 70.8587C174.983 70.4668 175.246 69.9006 175.246 69.2909C175.246 68.6811 174.983 68.115 174.544 67.723C174.062 67.2875 173.448 67.0697 172.835 67.1133H169.723L169.766 74.9526H173.098C173.755 74.9526 174.369 74.7348 174.851 74.2993C175.333 73.8638 175.596 73.2976 175.552 72.6443C175.552 71.8604 175.114 71.2071 174.5 70.8587ZM156.879 74.9961H158.457L158.414 67.1568H156.879V74.9961ZM143.203 68.6376C143.861 68.6811 144.343 69.2473 144.299 69.857C144.255 70.4232 143.773 70.9023 143.203 70.9458H141.582V68.6376H143.203ZM146.096 75.0397L144.343 72.0782C145.264 71.6862 145.833 70.7716 145.877 69.7699C145.877 68.3327 144.694 67.1568 143.247 67.1568H140.091L140.135 74.9961H141.713V72.2524H142.897L144.518 74.9526L146.096 75.0397ZM123.522 67.2439V68.7247H125.67V75.0832H127.248L127.204 68.7247H129.352V67.2439H123.522ZM110.723 75.301C111.468 75.3446 112.213 75.0832 112.783 74.6477C113.616 73.9509 113.835 72.7314 113.265 71.8169C112.958 71.3813 112.52 71.0765 112.038 70.9023C111.819 70.8152 111.643 70.7281 111.512 70.7281L110.986 70.5539C110.548 70.4668 110.153 70.2925 109.802 70.0748C109.627 69.9441 109.496 69.7264 109.496 69.4651C109.496 68.986 109.89 68.6811 110.548 68.6811C111.205 68.6811 111.819 69.0731 112.082 69.6828L113.397 68.9424C112.915 67.8536 111.775 67.1568 110.591 67.2004C109.934 67.2004 109.276 67.4181 108.75 67.8536C108.268 68.2892 107.961 68.8989 108.005 69.5522C107.961 70.1619 108.268 70.7716 108.75 71.1636C109.233 71.512 109.802 71.7298 110.416 71.904C110.854 72.0346 111.337 72.1653 111.731 72.383C111.95 72.5137 112.126 72.775 112.126 73.0363C112.126 73.5154 111.731 73.8638 110.854 73.8638C110.022 73.9074 109.276 73.4283 109.013 72.6443L107.698 73.4283C108.005 74.5606 109.101 75.301 110.723 75.301ZM95.2498 75.2139H96.8278L96.784 67.3746H95.206L95.2498 75.2139ZM78.9 73.7767V68.8989H80.478C81.0917 68.8553 81.7053 69.1167 82.1437 69.5957C82.582 70.0748 82.8012 70.6845 82.8012 71.3378C82.845 71.9911 82.582 72.6443 82.1437 73.1234C81.7053 73.5589 81.0917 73.8202 80.478 73.8202L78.9 73.7767ZM77.322 67.4181L77.3658 75.2575H80.5218C81.53 75.2575 82.5382 74.8655 83.2395 74.1251C84.686 72.5572 84.686 70.1183 83.2395 68.5505C82.5382 67.8101 81.53 67.4181 80.5218 67.4181H77.322Z" fill="#65BB99"/>
</svg>
