<svg width="44" height="24" viewBox="0 0 44 24" fill="none" xmlns="http://www.w3.org/2000/svg">
<path d="M31.9354 1.49477C31.5995 1.83076 31.4108 2.28639 31.4108 2.76148C31.4108 3.23657 31.5995 3.6922 31.9354 4.02819L38.4409 10.5391L1.85685 10.5391C1.38167 10.5391 0.925955 10.7279 0.589952 11.0639C0.253949 11.3999 0.065185 11.8556 0.065185 12.3308C0.0651851 12.806 0.253949 13.2617 0.589952 13.5977C0.925955 13.9337 1.38167 14.1224 1.85685 14.1224L38.4212 14.1224L31.9354 20.6065C31.7575 20.7699 31.6146 20.9676 31.5151 21.1877C31.4156 21.4078 31.3617 21.6458 31.3565 21.8872C31.3513 22.1287 31.395 22.3687 31.485 22.5929C31.575 22.8171 31.7093 23.0207 31.88 23.1916C32.0506 23.3625 32.2541 23.4972 32.4781 23.5874C32.7022 23.6777 32.9421 23.7218 33.1836 23.7169C33.4251 23.7121 33.6631 23.6585 33.8833 23.5593C34.1036 23.4602 34.3015 23.3175 34.4652 23.1399L41.4867 16.1184C41.9859 15.6192 42.3819 15.0267 42.6521 14.3745C42.9223 13.7223 43.0614 13.0233 43.0614 12.3173C43.0614 11.6114 42.9223 10.9124 42.6521 10.2602C42.3819 9.60802 41.9859 9.01544 41.4867 8.51631L34.4652 1.49477C34.1293 1.15998 33.6745 0.971985 33.2003 0.971985C32.7261 0.971985 32.2712 1.15998 31.9354 1.49477Z" fill="#0E1B47"/>
</svg>
